<svg width="1000" height="1000" viewBox="0 0 1000 1000" fill="none" xmlns="http://www.w3.org/2000/svg">
<circle cx="500" cy="500" r="500" fill="white"/>
<g clip-path="url(#clip0_456_14)">
<path d="M500.639 341.425C413.048 341.425 342.395 412.163 342.395 499.861C342.395 587.56 413.048 658.298 500.639 658.298C588.231 658.298 658.884 587.56 658.884 499.861C658.884 412.163 588.231 341.425 500.639 341.425ZM500.639 602.866C444.035 602.866 397.76 556.672 397.76 499.861C397.76 443.05 443.898 396.857 500.639 396.857C557.381 396.857 603.519 443.05 603.519 499.861C603.519 556.672 557.244 602.866 500.639 602.866ZM702.266 334.944C702.266 355.49 685.74 371.899 665.357 371.899C644.836 371.899 628.447 355.352 628.447 334.944C628.447 314.536 644.973 297.989 665.357 297.989C685.74 297.989 702.266 314.536 702.266 334.944ZM807.074 372.45C804.732 322.948 793.439 279.098 757.218 242.971C721.134 206.844 677.338 195.537 627.896 193.055C576.938 190.159 424.203 190.159 373.246 193.055C323.941 195.399 280.145 206.706 243.923 242.833C207.702 278.96 196.547 322.81 194.068 372.312C191.175 423.332 191.175 576.253 194.068 627.272C196.409 676.775 207.702 720.624 243.923 756.751C280.145 792.879 323.803 804.186 373.246 806.668C424.203 809.564 576.938 809.564 627.896 806.668C677.338 804.324 721.134 793.017 757.218 756.751C793.301 720.624 804.595 676.775 807.074 627.272C809.966 576.253 809.966 423.47 807.074 372.45ZM741.242 682.015C730.5 709.041 709.703 729.863 682.572 740.756C641.944 756.889 545.537 753.166 500.639 753.166C455.742 753.166 359.198 756.751 318.707 740.756C291.713 730.001 270.917 709.179 260.037 682.015C243.923 641.337 247.642 544.814 247.642 499.861C247.642 454.909 244.061 358.248 260.037 317.708C270.779 290.681 291.576 269.86 318.707 258.966C359.335 242.833 455.742 246.556 500.639 246.556C545.537 246.556 642.081 242.971 682.572 258.966C709.566 269.722 730.362 290.543 741.242 317.708C757.356 358.385 753.637 454.909 753.637 499.861C753.637 544.814 757.356 641.475 741.242 682.015Z" fill="black"/>
</g>
<defs>
<clipPath id="clip0_456_14">
<rect width="617" height="706" fill="white" transform="translate(192 147)"/>
</clipPath>
</defs>
</svg>
