<svg width="4129" height="660" viewBox="0 0 4129 660" fill="none" xmlns="http://www.w3.org/2000/svg">
<g clip-path="url(#clip0_458_221)">
<path d="M488.469 181.477C489.076 180.98 632.716 265.093 632.716 265.093L632.659 654.062H0V236.781C1.49464 235.983 487.854 17.7878 488.469 17.4661V181.477C477.514 186.799 144.821 331.694 144.821 331.694V509.526H488.469C488.469 509.526 488.135 186.453 488.469 181.477Z" fill="#42618F"/>
<path d="M1980.64 165.866H2140.97C2149.42 165.866 2151.4 168.346 2151.4 176.296V206.57C2151.4 214.512 2148.92 216.992 2140.97 216.992H1980.64V165.866ZM1980.64 18.9393H2145.44C2153.88 18.9393 2156.37 21.4235 2156.37 29.3648V59.6436C2156.37 67.585 2153.88 70.5619 2145.44 70.5619H1980.64V18.9393ZM1972.21 355.977C1972.21 363.918 1969.72 366.398 1961.78 366.398H1922.57C1914.62 366.398 1912.14 363.918 1912.14 355.977V29.3648C1912.14 21.4235 1914.62 18.9393 1922.57 18.9393H1972.21V355.977Z" fill="#42618F"/>
<path d="M2367.84 124.172C2367.84 116.231 2370.32 113.75 2378.26 113.75H2414C2421.94 113.75 2424.43 116.231 2424.43 124.172V355.977C2424.43 363.918 2421.94 366.398 2414 366.398H2396.13C2386.7 366.398 2380.74 364.908 2376.77 360.444L2367.84 346.545V124.172ZM2358.9 345.551C2342.03 363.425 2321.17 371.855 2297.84 371.855C2243.25 371.855 2201.54 342.57 2201.54 257.199V124.172C2201.54 116.231 2204.03 113.75 2211.97 113.75H2247.71C2255.65 113.75 2258.14 116.231 2258.14 124.172V245.287C2258.14 297.407 2277.49 321.227 2312.24 321.227C2330.6 321.227 2348.97 311.795 2358.9 291.941V345.551Z" fill="#42618F"/>
<path d="M2575.84 141.545C2593.2 119.709 2620.51 108.285 2657.23 108.285C2667.17 108.285 2668.17 111.266 2667.17 118.218L2661.7 154.451C2660.22 162.392 2657.74 164.379 2649.79 164.379C2619.01 164.379 2591.22 175.298 2575.84 203.589V141.545ZM2567.39 355.977C2566.9 363.918 2564.9 366.398 2556.97 366.398H2521.23C2513.29 366.398 2510.8 363.918 2510.8 355.977V124.172C2510.8 116.235 2513.29 113.75 2521.23 113.75H2539.1C2554.49 113.75 2556.47 116.727 2567.39 129.14V355.977Z" fill="#42618F"/>
<path d="M2784.32 134.598C2801.19 116.728 2822.05 108.289 2845.37 108.289C2899.97 108.289 2941.67 137.57 2941.67 222.95V355.977C2941.67 363.918 2939.19 366.398 2931.24 366.398H2895.5C2887.57 366.398 2885.08 363.918 2885.08 355.977V235.359C2885.08 182.746 2865.72 158.918 2830.98 158.918C2812.61 158.918 2794.24 168.35 2784.32 188.7V134.598ZM2775.38 355.977C2775.38 363.918 2772.89 366.398 2764.96 366.398H2729.22C2721.27 366.398 2718.79 363.918 2718.79 355.977V124.172C2718.79 116.235 2721.27 113.751 2729.22 113.751H2747.08C2756.52 113.751 2762.48 115.237 2766.44 119.709L2775.38 133.604V355.977Z" fill="#42618F"/>
<path d="M3025.58 124.172C3025.58 116.231 3028.05 113.75 3036 113.75H3071.74C3079.68 113.75 3082.16 116.231 3082.16 124.172V355.977C3082.16 363.918 3079.68 366.398 3071.74 366.398H3036C3028.05 366.398 3025.58 363.918 3025.58 355.977V124.172ZM3053.37 -0.417135C3072.24 -0.417135 3088.12 15.4655 3088.12 34.826C3088.12 54.1825 3072.24 69.0755 3053.37 69.0755C3034.01 69.0755 3018.62 54.1825 3018.62 34.826C3018.62 15.4655 3034.01 -0.417135 3053.37 -0.417135Z" fill="#42618F"/>
<path d="M3238.53 167.356V258.689C3238.53 303.364 3253.91 321.23 3284.19 321.23C3295.12 321.23 3303.55 320.237 3313.98 315.272C3323.41 310.312 3325.4 310.809 3327.38 321.23L3331.85 346.048C3333.33 353.497 3332.84 355.977 3326.38 359.451C3306.53 371.859 3284.69 371.859 3278.24 371.859C3212.72 371.859 3182.43 330.662 3182.43 262.167V167.356H3238.53ZM3164.07 158.918C3156.13 158.918 3153.65 156.434 3153.65 148.497V124.172C3153.65 116.234 3156.13 113.75 3164.07 113.75H3182.43V65.1046C3182.43 57.1633 3184.42 54.6832 3192.86 54.6832H3228.1C3236.05 54.6832 3238.53 57.1633 3238.53 65.1046V113.75H3314.97C3322.91 113.75 3325.4 116.234 3325.4 124.669V148.497C3325.4 156.434 3322.91 158.918 3314.97 158.918H3164.07Z" fill="#42618F"/>
<path d="M3550.75 124.172C3550.75 116.231 3553.24 113.75 3561.18 113.75H3596.92C3604.86 113.75 3607.34 116.231 3607.34 124.172V355.977C3607.34 363.918 3604.86 366.398 3596.92 366.398H3579.05C3569.62 366.398 3563.67 364.908 3559.68 360.444L3550.75 346.545V124.172ZM3541.82 345.551C3524.94 363.425 3504.1 371.855 3480.76 371.855C3426.16 371.855 3384.47 342.57 3384.47 257.199V124.172C3384.47 116.231 3386.95 113.75 3394.89 113.75H3430.63C3438.57 113.75 3441.06 116.231 3441.06 124.172V245.287C3441.06 297.407 3460.42 321.227 3495.17 321.227C3513.52 321.227 3531.89 311.795 3541.82 291.941V345.551Z" fill="#42618F"/>
<path d="M3758.75 141.545C3776.13 119.709 3803.43 108.285 3840.16 108.285C3850.08 108.285 3851.08 111.266 3850.08 118.218L3844.63 154.451C3843.13 162.392 3840.65 164.379 3832.72 164.379C3801.93 164.379 3774.14 175.298 3758.75 203.589V141.545ZM3750.32 355.977C3749.82 363.918 3747.83 366.398 3739.89 366.398H3704.14C3696.21 366.398 3693.73 363.918 3693.73 355.977V124.172C3693.73 116.235 3696.21 113.75 3704.14 113.75H3722.02C3737.4 113.75 3739.39 116.727 3750.32 129.14V355.977Z" fill="#42618F"/>
<path d="M3943.42 221.459H4071.48C4068.01 192.174 4048.65 156.935 4008.44 154.947V108.285C4088.36 110.276 4129.06 175.298 4129.06 247.767C4129.06 255.708 4127.57 258.69 4119.13 258.69H3943.42C3940.93 247.27 3940.93 232.874 3943.42 221.459ZM3932.98 242.306C3932.98 288.471 3966.25 323.218 4009.44 323.218C4027.3 323.218 4051.63 319.247 4077.44 304.354C4085.37 300.88 4087.36 298.893 4092.83 305.348L4107.22 323.218C4112.18 329.176 4113.17 332.153 4108.7 337.113C4085.37 359.451 4044.68 371.859 4007.94 371.859C3932.98 371.859 3874.92 312.796 3874.92 240.323C3874.92 171.327 3929.51 110.769 4000.01 108.285V154.947C3960.29 157.432 3932.98 191.677 3932.98 238.832V242.306Z" fill="#42618F"/>
<path d="M942.077 623.661C950.943 611.595 955.386 596.4 955.386 578.054C955.386 559.707 950.943 544.558 942.077 532.597C933.199 520.632 920.39 514.649 903.644 514.649C886.698 514.649 873.886 520.685 865.211 532.748C856.54 544.81 852.207 559.911 852.207 578.054C852.207 596.4 856.585 611.595 865.362 623.661C874.134 635.724 886.897 641.751 903.644 641.751C920.39 641.751 933.199 635.724 942.077 623.661ZM861.92 649.224C851.857 642.053 844.172 632.283 838.898 619.923C833.608 607.559 830.969 593.708 830.969 578.351C830.969 562.798 833.608 548.793 838.898 536.335C844.172 523.878 851.955 514.051 862.222 506.875C872.493 499.699 884.804 496.112 899.156 496.112C913.312 496.112 924.829 499.549 933.7 506.427C942.57 513.306 949.403 521.63 954.185 531.4H956.282V500.893H976.918V658.2H956.282V624.105H954.185C949 634.274 941.877 642.802 932.804 649.68C923.726 656.559 912.115 660 897.963 660C884.006 660 871.988 656.404 861.92 649.224Z" fill="#828484"/>
<path d="M1092.66 500.892H1112.99V526.015H1114.49C1117.27 519.043 1121.96 513.109 1128.54 508.218C1135.12 503.339 1143.29 500.892 1153.06 500.892C1156.65 500.892 1159.5 501.043 1161.59 501.34C1163.68 501.645 1165.93 502.293 1168.32 503.287L1167.72 523.624C1164.33 522.627 1161.49 521.975 1159.2 521.678C1156.9 521.376 1154.06 521.23 1150.67 521.23C1139.31 521.23 1130.19 524.667 1123.31 531.545C1116.43 538.424 1112.99 549.847 1112.99 565.791V658.199H1092.66V500.892Z" fill="#828484"/>
<path d="M1307.68 569.082C1306.88 549.343 1302.09 535.089 1293.33 526.317C1284.55 517.545 1273.18 513.159 1259.23 513.159C1243.67 513.159 1231.37 518.343 1222.29 528.708C1213.22 539.076 1208.28 552.536 1207.49 569.082H1307.68ZM1218.85 648.332C1207.89 640.558 1199.72 630.393 1194.33 617.83C1188.95 605.27 1186.26 592.014 1186.26 578.054C1186.26 564.101 1188.95 550.841 1194.33 538.278C1199.72 525.722 1207.89 515.549 1218.85 507.771C1229.81 499.997 1243.28 496.112 1259.23 496.112C1280.16 496.112 1296.91 503.19 1309.47 517.341C1322.03 531.501 1328.31 551.937 1328.31 578.652V584.338H1206.89V586.427C1206.89 595.997 1209.03 605.123 1213.32 613.794C1217.61 622.464 1223.74 629.399 1231.72 634.576C1239.69 639.764 1248.76 642.35 1258.93 642.35C1270.09 642.35 1279.67 639.515 1287.64 633.826C1295.61 628.145 1301.59 620.42 1305.58 610.65H1325.92C1321.53 624.81 1313.76 636.571 1302.6 645.938C1291.42 655.317 1276.97 660 1259.23 660C1243.28 660 1229.81 656.107 1218.85 648.332Z" fill="#828484"/>
<path d="M1471.13 623.661C1479.99 611.595 1484.44 596.4 1484.44 578.054C1484.44 559.707 1479.99 544.558 1471.13 532.597C1462.25 520.632 1449.44 514.649 1432.69 514.649C1415.74 514.649 1402.94 520.685 1394.26 532.748C1385.59 544.81 1381.26 559.911 1381.26 578.054C1381.26 596.4 1385.64 611.595 1394.41 623.661C1403.18 635.724 1415.95 641.751 1432.69 641.751C1449.44 641.751 1462.25 635.724 1471.13 623.661ZM1390.97 649.224C1380.91 642.053 1373.22 632.283 1367.94 619.923C1362.66 607.559 1360.02 593.708 1360.02 578.351C1360.02 562.798 1362.66 548.793 1367.94 536.335C1373.22 523.878 1381 514.051 1391.27 506.875C1401.54 499.699 1413.85 496.112 1428.21 496.112C1442.36 496.112 1453.88 499.549 1462.75 506.427C1471.62 513.306 1478.45 521.63 1483.24 531.4H1485.33V500.893H1505.97V658.2H1485.33V624.105H1483.24C1478.05 634.274 1470.92 642.802 1461.85 649.68C1452.78 656.559 1441.17 660 1427.01 660C1413.05 660 1401.04 656.404 1390.97 649.224Z" fill="#828484"/>
<path d="M1567.72 654.316C1562.43 650.724 1559.04 645.988 1557.55 640.111C1556.05 634.226 1555.3 626.501 1555.3 616.93V433.905H1575.94V614.239C1575.94 622.009 1576.29 627.796 1576.98 631.583C1577.68 635.375 1579.58 638.364 1582.67 640.555C1585.76 642.75 1590.7 643.849 1597.47 643.849C1599.47 643.849 1601.66 643.699 1604.05 643.397C1606.45 643.1 1608.14 642.949 1609.14 642.949V657.904C1603.16 659.097 1597.37 659.691 1591.79 659.691C1581.03 659.691 1573 657.904 1567.72 654.316Z" fill="#828484"/>
<path d="M1727.42 654.316C1722.13 650.724 1718.74 645.988 1717.25 640.111C1715.75 634.226 1715 626.501 1715 616.93V433.905H1735.64V614.239C1735.64 622.009 1735.99 627.796 1736.68 631.583C1737.38 635.375 1739.27 638.364 1742.37 640.555C1745.46 642.75 1750.4 643.849 1757.17 643.849C1759.16 643.849 1761.36 643.699 1763.75 643.397C1766.15 643.1 1767.84 642.949 1768.84 642.949V657.904C1762.86 659.097 1757.07 659.691 1751.49 659.691C1740.73 659.691 1732.7 657.904 1727.42 654.316Z" fill="#828484"/>
<path d="M1806.51 500.892H1827.14V658.199H1806.51V500.892ZM1805.91 466.651C1803.12 463.767 1801.73 460.224 1801.73 456.034C1801.73 452.051 1803.12 448.61 1805.91 445.718C1808.7 442.831 1812.19 441.381 1816.38 441.381C1820.56 441.381 1824.06 442.831 1826.85 445.718C1829.64 448.61 1831.03 452.051 1831.03 456.034C1831.03 460.224 1829.64 463.767 1826.85 466.651C1824.06 469.546 1820.56 470.992 1816.38 470.992C1812.19 470.992 1808.7 469.546 1805.91 466.651Z" fill="#828484"/>
<path d="M1917.92 457.084C1914.63 459.772 1912.58 463.018 1911.78 466.801C1910.99 470.593 1910.59 475.378 1910.59 481.161V500.892H1948.57V517.642H1910.59V658.203H1889.96L1889.66 517.642H1867.23V500.892H1889.66V478.465C1889.66 466.903 1892.4 457.186 1897.88 449.306C1903.36 441.434 1913.88 437.492 1929.43 437.492C1938 437.492 1944.39 438.29 1948.57 439.886V454.539C1944.19 453.545 1939.2 453.04 1933.62 453.04C1926.44 453.04 1921.21 454.392 1917.92 457.084Z" fill="#828484"/>
<path d="M2085.54 569.082C2084.75 549.343 2079.96 535.089 2071.19 526.317C2062.41 517.545 2051.05 513.159 2037.1 513.159C2021.54 513.159 2009.23 518.343 2000.16 528.708C1991.09 539.076 1986.15 552.536 1985.36 569.082H2085.54ZM1996.72 648.332C1985.75 640.558 1977.58 630.393 1972.2 617.83C1966.82 605.27 1964.12 592.014 1964.12 578.054C1964.12 564.101 1966.82 550.841 1972.2 538.278C1977.58 525.722 1985.75 515.549 1996.72 507.771C2007.68 499.997 2021.14 496.112 2037.1 496.112C2058.03 496.112 2074.78 503.19 2087.34 517.341C2099.9 531.501 2106.18 551.937 2106.18 578.652V584.338H1984.76V586.427C1984.76 595.997 1986.89 605.123 1991.19 613.794C1995.47 622.464 2001.6 629.399 2009.58 634.576C2017.55 639.764 2026.63 642.35 2036.8 642.35C2047.96 642.35 2057.53 639.515 2065.5 633.826C2073.48 628.145 2079.46 620.42 2083.45 610.65H2103.79C2099.4 624.81 2091.63 636.571 2080.46 645.938C2069.29 655.317 2054.84 660 2037.1 660C2021.14 660 2007.68 656.107 1996.72 648.332Z" fill="#828484"/>
<path d="M2226.4 555.924H2336.76V573.566H2226.4V555.924Z" fill="#828484"/>
<path d="M2566.9 623.661C2575.76 611.595 2580.21 596.4 2580.21 578.054C2580.21 559.707 2575.76 544.558 2566.9 532.597C2558.02 520.632 2545.21 514.649 2528.46 514.649C2511.51 514.649 2498.71 520.685 2490.03 532.748C2481.36 544.81 2477.03 559.911 2477.03 578.054C2477.03 596.4 2481.41 611.595 2490.18 623.661C2498.95 635.724 2511.72 641.751 2528.46 641.751C2545.21 641.751 2558.02 635.724 2566.9 623.661ZM2486.74 649.224C2476.68 642.053 2468.99 632.283 2463.71 619.923C2458.43 607.559 2455.79 593.708 2455.79 578.351C2455.79 562.798 2458.43 548.793 2463.71 536.335C2468.99 523.878 2476.77 514.051 2487.04 506.875C2497.31 499.699 2509.62 496.112 2523.98 496.112C2538.13 496.112 2549.65 499.549 2558.52 506.427C2567.39 513.306 2574.22 521.63 2579 531.4H2581.1V500.893H2601.74V658.2H2581.1V624.105H2579C2573.82 634.274 2566.69 642.802 2557.62 649.68C2548.55 656.559 2536.94 660 2522.78 660C2508.82 660 2496.81 656.404 2486.74 649.224Z" fill="#828484"/>
<path d="M2717.47 500.892H2737.8V526.015H2739.3C2742.09 519.043 2746.77 513.109 2753.36 508.218C2759.94 503.339 2768.11 500.892 2777.88 500.892C2781.47 500.892 2784.31 501.043 2786.41 501.34C2788.49 501.645 2790.74 502.293 2793.13 503.287L2792.53 523.624C2789.14 522.627 2786.3 521.975 2784.01 521.678C2781.71 521.376 2778.87 521.23 2775.49 521.23C2764.12 521.23 2755 524.667 2748.12 531.545C2741.24 538.424 2737.8 549.847 2737.8 565.791V658.199H2717.47V500.892Z" fill="#828484"/>
<path d="M2932.5 569.082C2931.7 549.343 2926.91 535.089 2918.15 526.317C2909.37 517.545 2898 513.159 2884.05 513.159C2868.49 513.159 2856.19 518.343 2847.11 528.708C2838.04 539.076 2833.1 552.536 2832.31 569.082H2932.5ZM2843.67 648.332C2832.71 640.558 2824.53 630.393 2819.15 617.83C2813.77 605.27 2811.08 592.014 2811.08 578.054C2811.08 564.101 2813.77 550.841 2819.15 538.278C2824.53 525.722 2832.71 515.549 2843.67 507.771C2854.63 499.997 2868.09 496.112 2884.05 496.112C2904.98 496.112 2921.73 503.19 2934.29 517.341C2946.85 531.501 2953.13 551.937 2953.13 578.652V584.338H2831.71V586.427C2831.71 595.997 2833.85 605.123 2838.14 613.794C2842.43 622.464 2848.56 629.399 2856.54 634.576C2864.51 639.764 2873.58 642.35 2883.75 642.35C2894.91 642.35 2904.48 639.515 2912.46 633.826C2920.43 628.145 2926.41 620.42 2930.4 610.65H2950.74C2946.35 624.81 2938.58 636.571 2927.42 645.938C2916.24 655.317 2901.79 660 2884.05 660C2868.09 660 2854.63 656.107 2843.67 648.332Z" fill="#828484"/>
<path d="M3095.94 623.661C3104.81 611.595 3109.25 596.4 3109.25 578.054C3109.25 559.707 3104.81 544.558 3095.94 532.597C3087.06 520.632 3074.26 514.649 3057.51 514.649C3040.56 514.649 3027.75 520.685 3019.08 532.748C3010.41 544.81 3006.07 559.911 3006.07 578.054C3006.07 596.4 3010.45 611.595 3019.22 623.661C3028 635.724 3040.76 641.751 3057.51 641.751C3074.26 641.751 3087.06 635.724 3095.94 623.661ZM3015.78 649.224C3005.72 642.053 2998.04 632.283 2992.76 619.923C2987.48 607.559 2984.83 593.708 2984.83 578.351C2984.83 562.798 2987.48 548.793 2992.76 536.335C2998.04 523.878 3005.82 514.051 3016.09 506.875C3026.36 499.699 3038.67 496.112 3053.02 496.112C3067.18 496.112 3078.7 499.549 3087.56 506.427C3096.44 513.306 3103.27 521.63 3108.05 531.4H3110.15V500.893H3130.79V658.2H3110.15V624.105H3108.05C3102.87 634.274 3095.74 642.802 3086.67 649.68C3077.59 656.559 3065.98 660 3051.83 660C3037.87 660 3025.85 656.404 3015.78 649.224Z" fill="#828484"/>
<path d="M3192.54 654.316C3187.25 650.724 3183.86 645.988 3182.37 640.111C3180.87 634.226 3180.12 626.501 3180.12 616.93V433.905H3200.76V614.239C3200.76 622.009 3201.11 627.796 3201.8 631.583C3202.5 635.375 3204.39 638.364 3207.49 640.555C3210.58 642.75 3215.52 643.849 3222.29 643.849C3224.28 643.849 3226.48 643.699 3228.87 643.397C3231.27 643.1 3232.96 642.949 3233.96 642.949V657.904C3227.97 659.097 3222.19 659.691 3216.61 659.691C3205.85 659.691 3197.82 657.904 3192.54 654.316Z" fill="#828484"/>
<path d="M3338.93 434.502H3359.86V530.503H3361.96C3366.14 520.932 3372.87 512.812 3382.14 506.129C3391.41 499.45 3402.72 496.111 3416.08 496.111C3429.25 496.111 3440.41 499.206 3449.58 505.384C3458.75 511.562 3465.63 519.886 3470.22 530.352C3474.8 540.818 3477.1 552.331 3477.1 564.895V658.203H3456.76V566.988C3456.76 550.046 3452.27 537.23 3443.3 528.556C3434.33 519.886 3422.67 515.549 3408.31 515.549C3399.54 515.549 3391.46 517.544 3384.09 521.527C3376.71 525.518 3370.82 531.399 3366.44 539.173C3362.05 546.951 3359.86 556.22 3359.86 566.988V658.203H3338.93V434.502Z" fill="#828484"/>
<path d="M3617.21 633.232C3625.08 627.546 3631.16 619.878 3635.45 610.206C3639.74 600.534 3641.88 589.819 3641.88 578.054C3641.88 566.093 3639.79 555.276 3635.6 545.604C3631.41 535.936 3625.32 528.309 3617.35 522.729C3609.38 517.15 3600.11 514.352 3589.54 514.352C3578.97 514.352 3569.7 517.15 3561.73 522.729C3553.75 528.309 3547.67 535.989 3543.49 545.755C3539.3 555.525 3537.21 566.292 3537.21 578.054C3537.21 590.019 3539.3 600.831 3543.49 610.503C3547.67 620.175 3553.7 627.799 3561.58 633.382C3569.45 638.962 3578.77 641.755 3589.54 641.755C3600.11 641.755 3609.33 638.913 3617.21 633.232ZM3549.46 648.332C3538.5 640.558 3530.27 630.442 3524.79 617.976C3519.31 605.523 3516.57 592.311 3516.57 578.351C3516.57 564.199 3519.31 550.89 3524.79 538.429C3530.27 525.975 3538.5 515.851 3549.46 508.072C3560.43 500.298 3573.79 496.409 3589.54 496.409C3605.29 496.409 3618.65 500.298 3629.62 508.072C3640.58 515.851 3648.81 525.975 3654.29 538.429C3659.77 550.89 3662.52 564.101 3662.52 578.054C3662.52 592.214 3659.77 605.523 3654.29 617.976C3648.81 630.442 3640.58 640.558 3629.62 648.332C3618.65 656.107 3605.29 660 3589.54 660C3573.79 660 3560.43 656.107 3549.46 648.332Z" fill="#828484"/>
<path d="M3702.89 500.892H3723.52V530.8H3725.62C3726.41 528.406 3728.55 524.569 3732.04 519.287C3735.53 514.005 3741.12 508.821 3748.79 503.734C3756.47 498.652 3765.99 496.111 3777.35 496.111C3789.51 496.111 3799.53 498.905 3807.41 504.48C3815.29 510.067 3821.17 516.05 3825.05 522.427C3828.95 528.805 3830.89 532.796 3830.89 534.388H3833.28C3834.28 531.598 3836.62 527.314 3840.31 521.527C3843.99 515.748 3850.03 510.067 3858.4 504.48C3866.77 498.905 3877.14 496.111 3889.5 496.111C3901.86 496.111 3912.43 499.251 3921.21 505.53C3929.98 511.814 3936.61 520.183 3941.1 530.649C3945.58 541.116 3947.83 552.531 3947.83 564.891V658.199H3927.19V566.088C3927.19 549.542 3922.9 537.035 3914.33 528.552C3905.75 520.085 3895.19 515.846 3882.63 515.846C3874.25 515.846 3866.47 517.744 3859.3 521.527C3852.12 525.319 3846.39 531 3842.1 538.574C3837.81 546.153 3835.67 555.32 3835.67 566.088V658.199H3815.03V566.088C3815.03 549.542 3810.74 537.035 3802.18 528.552C3793.6 520.085 3783.04 515.846 3770.48 515.846C3762.1 515.846 3754.33 517.744 3747.15 521.527C3739.97 525.319 3734.23 531 3729.95 538.574C3725.66 546.153 3723.52 555.32 3723.52 566.088V658.199H3702.89V500.892Z" fill="#828484"/>
<path d="M4108.43 569.082C4107.63 549.343 4102.84 535.089 4094.08 526.317C4085.3 517.545 4073.93 513.159 4059.98 513.159C4044.42 513.159 4032.12 518.343 4023.04 528.708C4013.97 539.076 4009.03 552.536 4008.24 569.082H4108.43ZM4019.6 648.332C4008.64 640.558 4000.46 630.393 3995.08 617.83C3989.7 605.27 3987.01 592.014 3987.01 578.054C3987.01 564.101 3989.7 550.841 3995.08 538.278C4000.46 525.722 4008.64 515.549 4019.6 507.771C4030.56 499.997 4044.02 496.112 4059.98 496.112C4080.91 496.112 4097.66 503.19 4110.22 517.341C4122.78 531.501 4129.06 551.937 4129.06 578.652V584.338H4007.64V586.427C4007.64 595.997 4009.78 605.123 4014.07 613.794C4018.36 622.464 4024.49 629.399 4032.47 634.576C4040.44 639.764 4049.51 642.35 4059.68 642.35C4070.84 642.35 4080.41 639.515 4088.39 633.826C4096.36 628.145 4102.34 620.42 4106.33 610.65H4126.67C4122.28 624.81 4114.51 636.571 4103.35 645.938C4092.17 655.317 4077.72 660 4059.98 660C4044.02 660 4030.56 656.107 4019.6 648.332Z" fill="#828484"/>
<path d="M903.419 367.426H833.379V17.4662H903.419V157.547H1043.26V17.4662H1113.3V367.426H1043.26V227.593H903.419V367.426Z" fill="#42618F"/>
<path d="M1423.25 367.426H1178.22V17.4662H1248.26V297.387H1423.25V367.426Z" fill="#42618F"/>
<path d="M1669.98 192.444C1669.98 177.962 1667.25 164.381 1661.8 151.691C1656.35 138.997 1648.87 127.895 1639.35 118.378C1629.84 108.861 1618.69 101.339 1605.92 95.8003C1593.14 90.274 1579.51 87.5047 1565.04 87.5047H1530.14V297.384H1565.04C1579.51 297.384 1593.14 294.659 1605.92 289.21C1618.69 283.757 1629.84 276.272 1639.35 266.754C1648.87 257.241 1656.35 246.095 1661.8 233.32C1667.25 220.552 1669.98 206.93 1669.98 192.444ZM1740.02 192.444C1740.02 208.551 1737.95 224.051 1733.8 238.935C1729.65 253.824 1723.75 267.732 1716.1 280.666C1708.45 293.596 1699.34 305.398 1688.77 316.052C1678.2 326.709 1666.4 335.864 1653.39 343.504C1640.37 351.156 1626.42 357.049 1611.52 361.199C1596.64 365.349 1581.15 367.422 1565.04 367.422H1459.61V17.4623H1565.04C1581.15 17.4623 1596.64 19.5393 1611.52 23.6891C1626.42 27.8349 1640.37 33.7359 1653.39 41.384C1666.4 49.028 1678.2 58.1829 1688.77 68.8324C1699.34 79.4942 1708.45 91.288 1716.1 104.222C1723.75 117.16 1729.65 131.068 1733.8 145.953C1737.95 160.842 1740.02 176.333 1740.02 192.444Z" fill="#42618F"/>
</g>
<defs>
<clipPath id="clip0_458_221">
<rect width="4129" height="660" fill="white"/>
</clipPath>
</defs>
</svg>
