<svg width="318" height="318" viewBox="0 0 318 318" fill="none" xmlns="http://www.w3.org/2000/svg">
<g clip-path="url(#clip0_39_5980)">
<path d="M159 318C246.813 318 318 246.813 318 159C318 71.1867 246.813 0 159 0C71.1867 0 0 71.1867 0 159C0 246.813 71.1867 318 159 318Z" fill="white"/>
<path d="M266.976 104.768C264.373 95.0008 256.729 87.3355 247.019 84.7393C229.417 80 158.843 80 158.843 80C158.843 80 88.2698 80 70.6677 84.7393C60.9576 87.3355 53.3135 95.0008 50.7104 104.768C46 122.447 46 159.29 46 159.29C46 159.29 46 196.132 50.7104 213.812C53.3135 223.579 60.9576 230.914 70.6677 233.511C88.2698 238.25 158.843 238.25 158.843 238.25C158.843 238.25 229.417 238.25 247.019 233.511C256.729 230.914 264.373 223.538 266.976 213.812C271.687 196.132 271.687 159.29 271.687 159.29C271.687 159.29 271.687 122.447 266.976 104.768ZM135.787 192.753V125.827L194.75 159.29L135.787 192.753Z" fill="black"/>
</g>
<defs>
<clipPath id="clip0_39_5980">
<rect width="318" height="318" fill="white"/>
</clipPath>
</defs>
</svg>
